<?xml version="1.0" encoding="UTF-8"?>
<svg version="1.1" xmlns="http://www.w3.org/2000/svg" width="392" height="112">
<path d="M0 0 C1.32 0 2.64 0 4 0 C10.1711626 0.79236982 15.55055262 1.86656776 21 5 C21.99 5.33 22.98 5.66 24 6 C25.7890625 7.26953125 25.7890625 7.26953125 27.625 8.8125 C28.23601562 9.31394531 28.84703125 9.81539062 29.4765625 10.33203125 C31.22586428 12.24729243 31.73297964 13.43249658 32 16 C31.04504326 17.69287785 30.0409066 19.35857037 29 21 C27.68899426 25.0338638 28.1591368 27.20998753 30 31 C29.01 31.33 28.02 31.66 27 32 C27.33 32.99 27.66 33.98 28 35 C21.375 39 21.375 39 18 39 C17.505 39.99 17.505 39.99 17 41 C21.95 41 26.9 41 32 41 C33.07349791 45.29399165 32.79682816 46.19495213 31 50 C30.34 50 29.68 50 29 50 C29.33 50.66 29.66 51.32 30 52 C31.485 52.495 31.485 52.495 33 53 C32.75 54.875 32.75 54.875 32 57 C31.0409375 57.433125 31.0409375 57.433125 30.0625 57.875 C27.65296263 58.90505873 27.65296263 58.90505873 26.75 62.125 C26.5025 63.07375 26.255 64.0225 26 65 C24.04174127 65.02694851 22.08337774 65.04637218 20.125 65.0625 C18.48917969 65.07990234 18.48917969 65.07990234 16.8203125 65.09765625 C14 65 14 65 12 64 C10.32925438 64.08748837 8.66155894 64.24188042 7 64.4375 C2.10126582 65 2.10126582 65 0 65 C0 64.34 0 63.68 0 63 C-4.455 63.99 -4.455 63.99 -9 65 C-9 64.34 -9 63.68 -9 63 C-9.66 63 -10.32 63 -11 63 C-11 63.66 -11 64.32 -11 65 C-12.65 64.67 -14.3 64.34 -16 64 C-15.505 64.99 -15.505 64.99 -15 66 C-13.67511887 66.36548445 -12.33981486 66.6937566 -11 67 C-10.0409375 67.556875 -10.0409375 67.556875 -9.0625 68.125 C-6.37363338 69.26573129 -4.76141748 68.76706041 -2 68 C-0.57055055 70.35438733 0.08661261 71.48032433 -0.375 74.25 C-0.58125 74.8275 -0.7875 75.405 -1 76 C-3.66666667 76 -6.33333333 76 -9 76 C-10.67839313 76.02287838 -12.35677762 76.04639405 -14.03515625 76.0703125 C-16.04426729 76.08892769 -18.05338209 76.10714117 -20.0625 76.125 C-21.08150391 76.14175781 -22.10050781 76.15851563 -23.15039062 76.17578125 C-24.12298828 76.18222656 -25.09558594 76.18867187 -26.09765625 76.1953125 C-26.98976807 76.20578613 -27.88187988 76.21625977 -28.80102539 76.22705078 C-31 76 -31 76 -33 74 C-32.625 70.875 -32.625 70.875 -32 68 C-31.40832031 68.01160156 -30.81664062 68.02320312 -30.20703125 68.03515625 C-25.99768215 68.08322386 -22.1077667 68.06006883 -18 67 C-18 66.01 -18 65.02 -18 64 C-18.67546875 64.08378906 -19.3509375 64.16757813 -20.046875 64.25390625 C-21.38492187 64.40666016 -21.38492187 64.40666016 -22.75 64.5625 C-24.07257812 64.71912109 -24.07257812 64.71912109 -25.421875 64.87890625 C-27.93274551 64.99684108 -29.67769458 64.95716642 -32 64 C-32.495 62.515 -32.495 62.515 -33 61 C-32.34 61 -31.68 61 -31 61 C-31 60.34 -31 59.68 -31 59 C-31.66 58.67 -32.32 58.34 -33 58 C-34.54613389 53.20698495 -35.29535037 45.59070075 -33 41 C-30.05859375 40.5859375 -30.05859375 40.5859375 -26.4375 40.375 C-25.23996094 40.30023438 -24.04242188 40.22546875 -22.80859375 40.1484375 C-21.88175781 40.09945312 -20.95492188 40.05046875 -20 40 C-20.99 39.67 -21.98 39.34 -23 39 C-23 38.34 -23 37.68 -23 37 C-23.9075 36.731875 -24.815 36.46375 -25.75 36.1875 C-28.74369369 35.09365038 -30.71640425 34.19576514 -33 32 C-33 31.01 -33 30.02 -33 29 C-32.34 28.67 -31.68 28.34 -31 28 C-30.67795728 22.63262131 -31.58543105 19.72415664 -34 15 C-33.9375 12.8125 -33.9375 12.8125 -33 11 C-29.67857143 8 -29.67857143 8 -27 8 C-27 7.34 -27 6.68 -27 6 C-26.443125 5.896875 -25.88625 5.79375 -25.3125 5.6875 C-22.90533975 5.08964392 -22.90533975 5.08964392 -20.7265625 3.53125 C-17.75250544 1.86100592 -15.42230203 1.31841614 -12.0625 0.8125 C-10.56396484 0.57466797 -10.56396484 0.57466797 -9.03515625 0.33203125 C-5.99046991 -0.00104254 -3.06040363 -0.05412959 0 0 Z M-6 6 C-6 6.33 -6 6.66 -6 7 C-2.7 7 0.6 7 4 7 C4 6.67 4 6.34 4 6 C0.7 6 -2.6 6 -6 6 Z M-16 7 C-16 7.66 -16 8.32 -16 9 C-15.34 8.67 -14.68 8.34 -14 8 C-14.66 7.67 -15.32 7.34 -16 7 Z M-21 9 C-20 11 -20 11 -20 11 Z M-30 16 C-29 18 -29 18 -29 18 Z M-1 38 C-1 38.33 -1 38.66 -1 39 C0.98 39 2.96 39 5 39 C5 38.67 5 38.34 5 38 C3.02 38 1.04 38 -1 38 Z M-21 45 C-21 47.64 -21 50.28 -21 53 C-17.59385054 52.97873538 -17.59385054 52.97873538 -14 52 C-11.98958997 49.06550592 -11.98958997 49.06550592 -11 46 C-14.3 45.67 -17.6 45.34 -21 45 Z M-1 46 C-0.34 47.98 0.32 49.96 1 52 C3.64 52 6.28 52 9 52 C9 50.02 9 48.04 9 46 C5.7 46 2.4 46 -1 46 Z M15 46 C15 47.98 15 49.96 15 52 C17.31 52 19.62 52 22 52 C21.67 50.02 21.34 48.04 21 46 C19.02 46 17.04 46 15 46 Z M23 50 C24 53 24 53 24 53 Z M-17 55 C-17 55.33 -17 55.66 -17 56 C-15.02 56 -13.04 56 -11 56 C-11 55.67 -11 55.34 -11 55 C-12.98 55 -14.96 55 -17 55 Z M5 55 C5 55.33 5 55.66 5 56 C7.97 56 10.94 56 14 56 C14 55.67 14 55.34 14 55 C11.03 55 8.06 55 5 55 Z M-2 57 C-1 59 -1 59 -1 59 Z M-12 59 C-11 62 -11 62 -11 62 Z M-3 59 C-2 61 -2 61 -2 61 Z M-16 71 C-15 75 -15 75 -15 75 Z " fill="#D53232" transform="translate(44,18)"/>
<path d="M0 0 C2.625 0.9375 2.625 0.9375 5 2 C5 2.66 5 3.32 5 4 C5.804375 4.268125 6.60875 4.53625 7.4375 4.8125 C9.32746147 5.44248716 11.21573994 6.07918545 13.0859375 6.765625 C18.40550572 8.66947047 23.36394018 9.66608622 29 10 C30.27875 10.0825 31.5575 10.165 32.875 10.25 C41.47543619 10.09550115 48.34361243 7.2401349 55 2 C55.66 2 56.32 2 57 2 C57 1.34 57 0.68 57 0 C58.32 0.66 59.64 1.32 61 2 C60.67 2.66 60.34 3.32 60 4 C59.34 4 58.68 4 58 4 C58.495 5.485 58.495 5.485 59 7 C52.375 11 52.375 11 49 11 C48.67 11.66 48.34 12.32 48 13 C52.95 13 57.9 13 63 13 C64.07349791 17.29399165 63.79682816 18.19495213 62 22 C61.34 22 60.68 22 60 22 C60.495 22.99 60.495 22.99 61 24 C62.485 24.495 62.485 24.495 64 25 C63.75 26.875 63.75 26.875 63 29 C62.0409375 29.433125 62.0409375 29.433125 61.0625 29.875 C58.65296263 30.90505873 58.65296263 30.90505873 57.75 34.125 C57.5025 35.07375 57.255 36.0225 57 37 C55.04174127 37.02694851 53.08337774 37.04637218 51.125 37.0625 C49.48917969 37.07990234 49.48917969 37.07990234 47.8203125 37.09765625 C45 37 45 37 43 36 C41.32925438 36.08748837 39.66155894 36.24188042 38 36.4375 C33.10126582 37 33.10126582 37 31 37 C31 36.34 31 35.68 31 35 C28.03 35.66 25.06 36.32 22 37 C22 36.34 22 35.68 22 35 C21.34 35 20.68 35 20 35 C20 35.66 20 36.32 20 37 C18.35 36.67 16.7 36.34 15 36 C15.33 36.66 15.66 37.32 16 38 C17.32488113 38.36548445 18.66018514 38.6937566 20 39 C20.639375 39.37125 21.27875 39.7425 21.9375 40.125 C24.62636662 41.26573129 26.23858252 40.76706041 29 40 C30.42944945 42.35438733 31.08661261 43.48032433 30.625 46.25 C30.41875 46.8275 30.2125 47.405 30 48 C27.33333333 48 24.66666667 48 22 48 C20.32160687 48.02287838 18.64322238 48.04639405 16.96484375 48.0703125 C14.95573271 48.08892769 12.94661791 48.10714117 10.9375 48.125 C9.91849609 48.14175781 8.89949219 48.15851563 7.84960938 48.17578125 C6.39071289 48.18544922 6.39071289 48.18544922 4.90234375 48.1953125 C4.01023193 48.20578613 3.11812012 48.21625977 2.19897461 48.22705078 C-0 48 -0 48 -2 46 C-1.625 42.875 -1.625 42.875 -1 40 C-0.11248047 40.01740234 -0.11248047 40.01740234 0.79296875 40.03515625 C5.00231785 40.08322386 8.8922333 40.06006883 13 39 C13 38.01 13 37.02 13 36 C12.32453125 36.08378906 11.6490625 36.16757813 10.953125 36.25390625 C9.61507813 36.40666016 9.61507813 36.40666016 8.25 36.5625 C6.92742188 36.71912109 6.92742188 36.71912109 5.578125 36.87890625 C3.06725449 36.99684108 1.32230542 36.95716642 -1 36 C-1.495 34.515 -1.495 34.515 -2 33 C-1.34 33 -0.68 33 0 33 C0 32.34 0 31.68 0 31 C-0.66 30.67 -1.32 30.34 -2 30 C-3.54613389 25.20698495 -4.29535037 17.59070075 -2 13 C0.94140625 12.5859375 0.94140625 12.5859375 4.5625 12.375 C5.76003906 12.30023438 6.95757812 12.22546875 8.19140625 12.1484375 C9.58166016 12.07496094 9.58166016 12.07496094 11 12 C10.01 11.67 9.02 11.34 8 11 C8 10.34 8 9.68 8 9 C7.0925 8.731875 6.185 8.46375 5.25 8.1875 C2.25630631 7.09365038 0.28359575 6.19576514 -2 4 C-2 3.01 -2 2.02 -2 1 C-1.34 0.67 -0.68 0.34 0 0 Z M10 17 C10 19.64 10 22.28 10 25 C13.40614946 24.97873538 13.40614946 24.97873538 17 24 C19.01041003 21.06550592 19.01041003 21.06550592 20 18 C16.7 17.67 13.4 17.34 10 17 Z M30 18 C30.66 19.98 31.32 21.96 32 24 C34.64 24 37.28 24 40 24 C40 22.02 40 20.04 40 18 C36.7 18 33.4 18 30 18 Z M46 18 C46 19.98 46 21.96 46 24 C48.31 24 50.62 24 53 24 C52.67 22.02 52.34 20.04 52 18 C50.02 18 48.04 18 46 18 Z M54 22 C55 25 55 25 55 25 Z M14 27 C14 27.33 14 27.66 14 28 C15.98 28 17.96 28 20 28 C20 27.67 20 27.34 20 27 C18.02 27 16.04 27 14 27 Z M36 27 C36 27.33 36 27.66 36 28 C38.97 28 41.94 28 45 28 C45 27.67 45 27.34 45 27 C42.03 27 39.06 27 36 27 Z M29 29 C30 31 30 31 30 31 Z M19 31 C20 34 20 34 20 34 Z M28 31 C29 33 29 33 29 33 Z M15 43 C16 47 16 47 16 47 Z " fill="#18395D" transform="translate(13,46)"/>
<path d="M0 0 C0.69029297 -0.01289062 1.38058594 -0.02578125 2.09179688 -0.0390625 C5.77630186 -0.04635133 7.28575215 0.08633477 10.4375 2.1875 C10.7675 1.5275 11.0975 0.8675 11.4375 0.1875 C34.03239033 -0.01888953 34.03239033 -0.01888953 44.4375 1.1875 C43.80328125 1.61675781 43.1690625 2.04601562 42.515625 2.48828125 C39.79330613 4.71423747 39.32767787 6.849333 38.4375 10.1875 C36.47924127 10.21444851 34.52087774 10.23387218 32.5625 10.25 C30.92667969 10.26740234 30.92667969 10.26740234 29.2578125 10.28515625 C26.4375 10.1875 26.4375 10.1875 24.4375 9.1875 C22.76675438 9.27498837 21.09905894 9.42938042 19.4375 9.625 C14.53876582 10.1875 14.53876582 10.1875 12.4375 10.1875 C12.4375 9.5275 12.4375 8.8675 12.4375 8.1875 C9.4675 8.8475 6.4975 9.5075 3.4375 10.1875 C3.4375 9.5275 3.4375 8.8675 3.4375 8.1875 C2.7775 8.1875 2.1175 8.1875 1.4375 8.1875 C1.4375 8.8475 1.4375 9.5075 1.4375 10.1875 C-1.0375 9.6925 -1.0375 9.6925 -3.5625 9.1875 C-3.2325 9.8475 -2.9025 10.5075 -2.5625 11.1875 C-1.23761887 11.55298445 0.09768514 11.8812566 1.4375 12.1875 C2.076875 12.55875 2.71625 12.93 3.375 13.3125 C6.06386662 14.45323129 7.67608252 13.95456041 10.4375 13.1875 C11.86694945 15.54188733 12.52411261 16.66782433 12.0625 19.4375 C11.85625 20.015 11.65 20.5925 11.4375 21.1875 C8.77083333 21.1875 6.10416667 21.1875 3.4375 21.1875 C1.75910687 21.21037838 0.08072238 21.23389405 -1.59765625 21.2578125 C-3.60676729 21.27642769 -5.61588209 21.29464117 -7.625 21.3125 C-9.15350586 21.33763672 -9.15350586 21.33763672 -10.71289062 21.36328125 C-11.68548828 21.36972656 -12.65808594 21.37617187 -13.66015625 21.3828125 C-14.55226807 21.39328613 -15.44437988 21.40375977 -16.36352539 21.41455078 C-18.5625 21.1875 -18.5625 21.1875 -20.5625 19.1875 C-20.1875 16.0625 -20.1875 16.0625 -19.5625 13.1875 C-18.67498047 13.20490234 -18.67498047 13.20490234 -17.76953125 13.22265625 C-13.56018215 13.27072386 -9.6702667 13.24756883 -5.5625 12.1875 C-5.5625 11.1975 -5.5625 10.2075 -5.5625 9.1875 C-6.23796875 9.27128906 -6.9134375 9.35507813 -7.609375 9.44140625 C-8.50140625 9.54324219 -9.3934375 9.64507812 -10.3125 9.75 C-11.19421875 9.85441406 -12.0759375 9.95882812 -12.984375 10.06640625 C-15.49524551 10.18434108 -17.24019458 10.14466642 -19.5625 9.1875 C-19.8925 8.1975 -20.2225 7.2075 -20.5625 6.1875 C-19.9025 6.1875 -19.2425 6.1875 -18.5625 6.1875 C-18.5625 5.5275 -18.5625 4.8675 -18.5625 4.1875 C-19.2225 3.8575 -19.8825 3.5275 -20.5625 3.1875 C-20.5625 2.5275 -20.5625 1.8675 -20.5625 1.1875 C-13.71134015 0.46086183 -6.88675052 0.06277804 0 0 Z M0.4375 4.1875 C1.4375 7.1875 1.4375 7.1875 1.4375 7.1875 Z M9.4375 4.1875 C10.4375 6.1875 10.4375 6.1875 10.4375 6.1875 Z M-3.5625 16.1875 C-2.5625 20.1875 -2.5625 20.1875 -2.5625 20.1875 Z " fill="#000202" transform="translate(31.5625,72.8125)"/>
<path d="M0 0 C0.99 0 1.98 0 3 0 C5 3 5 3 5 7 C5.99 6.67 6.98 6.34 8 6 C9.39439664 5.93334624 10.79169875 5.91461801 12.1875 5.9375 C14.0746875 5.9684375 14.0746875 5.9684375 16 6 C15.75 8.375 15.75 8.375 15 11 C12.9375 12.3125 12.9375 12.3125 11 13 C11.825 13.928125 12.65 14.85625 13.5 15.8125 C16 18.625 16 18.625 16 22 C14.741875 22.020625 13.48375 22.04125 12.1875 22.0625 C11.47980469 22.07410156 10.77210937 22.08570312 10.04296875 22.09765625 C8 22 8 22 5 21 C4.67 22.98 4.34 24.96 4 27 C2.35 27.33 0.7 27.66 -1 28 C-2.4606285 25.35261084 -3 24.10551666 -3 21 C-3.886875 21.350625 -4.77375 21.70125 -5.6875 22.0625 C-9.06203126 23.01755602 -10.69686152 22.97151132 -14 22 C-13.42647107 18.12867972 -11.51295648 15.91827204 -9 13 C-9.639375 12.773125 -10.27875 12.54625 -10.9375 12.3125 C-13 11 -13 11 -13.75 8.375 C-13.8325 7.59125 -13.915 6.8075 -14 6 C-6.57142857 5.85714286 -6.57142857 5.85714286 -3 7 C-2.87625 6.21625 -2.7525 5.4325 -2.625 4.625 C-2 2 -2 2 0 0 Z " fill="#F7DCDC" transform="translate(42,26)"/>
<path d="M0 0 C-0.309375 0.763125 -0.61875 1.52625 -0.9375 2.3125 C-1.67893593 4.18789677 -2.36228217 6.08684652 -3 8 C-8.445 7.505 -8.445 7.505 -14 7 C-12.52360997 12.06008639 -12.52360997 12.06008639 -9 14 C-10.15173355 16.46800047 -11.04783565 18.04783565 -13 20 C-13 20.99 -13 21.98 -13 23 C-9.7 22.67 -6.4 22.34 -3 22 C-2.731875 22.969375 -2.46375 23.93875 -2.1875 24.9375 C-1.795625 25.948125 -1.40375 26.95875 -1 28 C-0.01 28.33 0.98 28.66 2 29 C2 29.66 2 30.32 2 31 C-4.86304509 32.85900665 -12.11322042 30.81011107 -18.44921875 27.859375 C-20.41400425 26.67676125 -22.2036802 25.42349871 -24 24 C-24.99 23.21625 -25.98 22.4325 -27 21.625 C-29 19 -29 19 -29.625 15.5 C-28.85040017 11.16224093 -27.42131335 9.68817477 -24 7 C-23.34 7 -22.68 7 -22 7 C-22 6.34 -22 5.68 -22 5 C-19.35261084 3.5393715 -18.10551666 3 -15 3 C-14.67 2.34 -14.34 1.68 -14 1 C-8.93135582 -0.92608479 -5.29132198 -1.07986163 0 0 Z " fill="#D53131" transform="translate(42,25)"/>
<path d="M0 0 C1.875 0.33984375 1.875 0.33984375 3.875 1.83984375 C4.37 2.58234375 4.37 2.58234375 4.875 3.33984375 C5.22175781 2.84871094 5.56851563 2.35757813 5.92578125 1.8515625 C8.87745834 -0.43761392 11.39509699 0.05140605 15.0625 0.15234375 C16.97095703 0.19294922 16.97095703 0.19294922 18.91796875 0.234375 C20.38169922 0.28658203 20.38169922 0.28658203 21.875 0.33984375 C22.535 1.65984375 23.195 2.97984375 23.875 4.33984375 C24.205 3.01984375 24.535 1.69984375 24.875 0.33984375 C26.525 0.33984375 28.175 0.33984375 29.875 0.33984375 C27.99775039 6.7171669 26.01828358 13.04679834 23.875 19.33984375 C22.225 19.33984375 20.575 19.33984375 18.875 19.33984375 C19.184375 17.79296875 19.184375 17.79296875 19.5 16.21484375 C19.88694403 12.21642215 19.39383076 10.00290618 17.875 6.33984375 C16.885 7.65984375 15.895 8.97984375 14.875 10.33984375 C15.535 10.66984375 16.195 10.99984375 16.875 11.33984375 C17.6875 13.15234375 17.6875 13.15234375 17.875 15.33984375 C16.9375 17.58984375 16.9375 17.58984375 14.875 19.33984375 C12.02882129 19.81614304 9.8077379 19.61915212 6.875 19.33984375 C6.215 18.67984375 5.555 18.01984375 4.875 17.33984375 C4.8984375 15.17578125 4.8984375 15.17578125 5.25 12.71484375 C5.41628906 11.48894531 5.41628906 11.48894531 5.5859375 10.23828125 C5.72902344 9.29855469 5.72902344 9.29855469 5.875 8.33984375 C3.93701737 11.11244674 3.93701737 11.11244674 2.875 13.33984375 C-4.14658273 14.95135454 -4.14658273 14.95135454 -7.625 12.77734375 C-9.54237542 9.66160869 -9.65052749 7.94346083 -9.125 4.33984375 C-7.22164909 -0.18061467 -4.47146364 -0.20549006 0 0 Z M-3.125 3.33984375 C-3.455 5.31984375 -3.785 7.29984375 -4.125 9.33984375 C-3.135 9.66984375 -2.145 9.99984375 -1.125 10.33984375 C-0.35257731 8.50283586 -0.35257731 8.50283586 -0.125 6.33984375 C-1.47944301 4.56793466 -1.47944301 4.56793466 -3.125 3.33984375 Z M9.875 3.33984375 C9.875 4.32984375 9.875 5.31984375 9.875 6.33984375 C10.535 6.33984375 11.195 6.33984375 11.875 6.33984375 C11.545 5.34984375 11.215 4.35984375 10.875 3.33984375 C10.545 3.33984375 10.215 3.33984375 9.875 3.33984375 Z M8.875 14.33984375 C9.205 14.99984375 9.535 15.65984375 9.875 16.33984375 C10.865 16.00984375 11.855 15.67984375 12.875 15.33984375 C11.555 15.00984375 10.235 14.67984375 8.875 14.33984375 Z " fill="#033E80" transform="translate(207.125,48.66015625)"/>
<path d="M0 0 C1.32 0 2.64 0 4 0 C10.1711626 0.79236982 15.55055262 1.86656776 21 5 C21.99 5.33 22.98 5.66 24 6 C25.7890625 7.26953125 25.7890625 7.26953125 27.625 8.8125 C28.23601562 9.31394531 28.84703125 9.81539062 29.4765625 10.33203125 C31.22545567 12.24684506 31.77706019 13.42323054 32 16 C30.0625 18.25 30.0625 18.25 28 20 C25 16.25 25 16.25 25 14 C24.30003906 13.72285156 23.60007813 13.44570313 22.87890625 13.16015625 C18.84328756 11.53386215 14.8441557 9.82280009 10.83984375 8.12109375 C4.01762419 5.4278654 -1.77260122 6.317166 -9 7 C-10.2375 7.061875 -11.475 7.12375 -12.75 7.1875 C-16.77374879 8.1934372 -19.47111985 10.08979383 -22.7890625 12.52734375 C-25 14 -25 14 -27.7109375 15.00390625 C-28.46632813 15.33261719 -29.22171875 15.66132812 -30 16 C-30.33 16.99 -30.66 17.98 -31 19 C-34.01875733 15.61899179 -34.01875733 15.61899179 -33.9375 12.9375 C-32.73190793 10.44594305 -31.34854458 9.42336035 -29 8 C-28.34 8 -27.68 8 -27 8 C-27 7.34 -27 6.68 -27 6 C-26.443125 5.896875 -25.88625 5.79375 -25.3125 5.6875 C-22.90533975 5.08964392 -22.90533975 5.08964392 -20.7265625 3.53125 C-17.75250544 1.86100592 -15.42230203 1.31841614 -12.0625 0.8125 C-10.56396484 0.57466797 -10.56396484 0.57466797 -9.03515625 0.33203125 C-5.99046991 -0.00104254 -3.06040363 -0.05412959 0 0 Z " fill="#1A345E" transform="translate(44,18)"/>
<path d="M0 0 C0 1.32 0 2.64 0 4 C2.64 4 5.28 4 8 4 C8.33 6.97 8.66 9.94 9 13 C9.33 13 9.66 13 10 13 C10 10.03 10 7.06 10 4 C12.64 4 15.28 4 18 4 C18 3.01 18 2.02 18 1 C19.65 0.67 21.3 0.34 23 0 C23 1.32 23 2.64 23 4 C23.66 4 24.32 4 25 4 C25 5.32 25 6.64 25 8 C24.34 8 23.68 8 23 8 C23 9.98 23 11.96 23 14 C23.66 14 24.32 14 25 14 C24.67 15.32 24.34 16.64 24 18 C22.02 17.67 20.04 17.34 18 17 C18 14.03 18 11.06 18 8 C17.34 8 16.68 8 16 8 C16 10.97 16 13.94 16 17 C11.74500059 18.16045439 8.31104861 17.82904781 4 17 C3.67 16.67 3.34 16.34 3 16 C2.67 16.66 2.34 17.32 2 18 C-0.375 18.125 -0.375 18.125 -3 18 C-5.64429609 15.35570391 -5.41511048 13.74645666 -5.6875 10.0625 C-5.77386719 9.00160156 -5.86023438 7.94070312 -5.94921875 6.84765625 C-6 4 -6 4 -5 1 C-3 0 -3 0 0 0 Z M2 6 C2 6.66 2 7.32 2 8 C1.34 8 0.68 8 0 8 C0 9.98 0 11.96 0 14 C0.99 14 1.98 14 3 14 C3 11.36 3 8.72 3 6 C2.67 6 2.34 6 2 6 Z " fill="#033E80" transform="translate(343,22)"/>
<path d="M0 0 C2.31 0 4.62 0 7 0 C7.33 2.64 7.66 5.28 8 8 C8.66 8 9.32 8 10 8 C10.144375 6.865625 10.28875 5.73125 10.4375 4.5625 C11 1 11 1 12 0 C13.99958364 -0.04080783 16.00045254 -0.04254356 18 0 C18.90413673 3.83724172 19.10576898 7.37502274 19.0625 11.3125 C19.05347656 12.38113281 19.04445313 13.44976562 19.03515625 14.55078125 C19.02355469 15.35902344 19.01195313 16.16726562 19 17 C17.35 17.33 15.7 17.66 14 18 C13.67 16.02 13.34 14.04 13 12 C12.773125 12.804375 12.54625 13.60875 12.3125 14.4375 C11.6628125 15.7059375 11.6628125 15.7059375 11 17 C8.375 17.8125 8.375 17.8125 6 18 C5.67 16.68 5.34 15.36 5 14 C4.67 14.99 4.34 15.98 4 17 C2.35 17.33 0.7 17.66 -1 18 C-1.09945415 11.88909517 -1.0712828 6.02596573 0 0 Z " fill="#033E80" transform="translate(84,22)"/>
<path d="M0 0 C1.2065625 0.0309375 1.2065625 0.0309375 2.4375 0.0625 C2.4375 1.3825 2.4375 2.7025 2.4375 4.0625 C1.7775 4.0625 1.1175 4.0625 0.4375 4.0625 C0.4375 4.7225 0.4375 5.3825 0.4375 6.0625 C1.0975 6.0625 1.7575 6.0625 2.4375 6.0625 C2.4375 7.3825 2.4375 8.7025 2.4375 10.0625 C1.7775 10.0625 1.1175 10.0625 0.4375 10.0625 C0.4375 13.0325 0.4375 16.0025 0.4375 19.0625 C-1.2125 19.3925 -2.8625 19.7225 -4.5625 20.0625 C-4.5625 16.7625 -4.5625 13.4625 -4.5625 10.0625 C-5.2225 10.0625 -5.8825 10.0625 -6.5625 10.0625 C-6.43875 11.42375 -6.43875 11.42375 -6.3125 12.8125 C-6.5625 16.0625 -6.5625 16.0625 -8.125 18.5 C-10.5625 20.0625 -10.5625 20.0625 -14.1875 19.9375 C-17.5625 19.0625 -17.5625 19.0625 -19.5625 17.0625 C-20.11489643 10.10230504 -20.11489643 10.10230504 -18.5 7.0625 C-15.52785612 5.52849026 -12.85018504 5.88637402 -9.5625 6.0625 C-8.5725 6.0625 -7.5825 6.0625 -6.5625 6.0625 C-5.9025 6.0625 -5.2425 6.0625 -4.5625 6.0625 C-4.418125 5.258125 -4.27375 4.45375 -4.125 3.625 C-3.347189 0.08163876 -3.347189 0.08163876 0 0 Z M-13.5625 9.0625 C-14.91868499 10.18784105 -14.91868499 10.18784105 -14.625 13.125 C-14.604375 14.094375 -14.58375 15.06375 -14.5625 16.0625 C-13.5725 15.7325 -12.5825 15.4025 -11.5625 15.0625 C-11.5625 13.4125 -11.5625 11.7625 -11.5625 10.0625 C-12.2225 9.7325 -12.8825 9.4025 -13.5625 9.0625 Z " fill="#033E80" transform="translate(102.5625,42.9375)"/>
<path d="M0 0 C2.05078125 0.03255208 4.1015625 0.06510417 6.15234375 0.09765625 C6.15234375 1.41765625 6.15234375 2.73765625 6.15234375 4.09765625 C5.16234375 4.09765625 4.17234375 4.09765625 3.15234375 4.09765625 C4.14234375 4.75765625 5.13234375 5.41765625 6.15234375 6.09765625 C6.60609375 5.29328125 7.05984375 4.48890625 7.52734375 3.66015625 C9.15234375 1.09765625 9.15234375 1.09765625 11.15234375 0.09765625 C16.44158363 -0.35249183 16.44158363 -0.35249183 19.02734375 1.28515625 C20.50015514 3.65801904 20.37457569 5.35679569 20.15234375 8.09765625 C19.16234375 8.42765625 18.17234375 8.75765625 17.15234375 9.09765625 C17.81234375 9.09765625 18.47234375 9.09765625 19.15234375 9.09765625 C19.15234375 10.41765625 19.15234375 11.73765625 19.15234375 13.09765625 C12.87542067 14.4515024 12.87542067 14.4515024 9.21484375 12.66015625 C8.53421875 12.14453125 7.85359375 11.62890625 7.15234375 11.09765625 C6.63671875 11.61328125 6.12109375 12.12890625 5.58984375 12.66015625 C2.18131665 14.67031326 -0.07872482 13.89493021 -3.84765625 13.09765625 C-3.84765625 11.77765625 -3.84765625 10.45765625 -3.84765625 9.09765625 C-2.52765625 9.09765625 -1.20765625 9.09765625 0.15234375 9.09765625 C-1.16765625 8.10765625 -2.48765625 7.11765625 -3.84765625 6.09765625 C-2.77957394 0.14691194 -2.77957394 0.14691194 0 0 Z M13.15234375 3.09765625 C12.82234375 3.75765625 12.49234375 4.41765625 12.15234375 5.09765625 C13.14234375 4.76765625 14.13234375 4.43765625 15.15234375 4.09765625 C14.49234375 3.76765625 13.83234375 3.43765625 13.15234375 3.09765625 Z " fill="#033E80" transform="translate(247.84765625,25.90234375)"/>
<path d="M0 0 C3.4375 0.375 3.4375 0.375 5.4375 2.375 C5.4375 3.365 5.4375 4.355 5.4375 5.375 C6.0975 5.375 6.7575 5.375 7.4375 5.375 C7.56125 4.735625 7.685 4.09625 7.8125 3.4375 C8.01875 2.756875 8.225 2.07625 8.4375 1.375 C11.39414519 -0.1033226 14.17979737 0.31467217 17.4375 0.375 C17.4375 1.695 17.4375 3.015 17.4375 4.375 C15.7875 4.375 14.1375 4.375 12.4375 4.375 C12.7675 6.025 13.0975 7.675 13.4375 9.375 C14.7575 9.375 16.0775 9.375 17.4375 9.375 C17.1075 11.025 16.7775 12.675 16.4375 14.375 C9.6875 13.625 9.6875 13.625 7.4375 11.375 C7.4375 10.385 7.4375 9.395 7.4375 8.375 C6.1175 8.705 4.7975 9.035 3.4375 9.375 C4.0975 9.375 4.7575 9.375 5.4375 9.375 C5.4375 10.695 5.4375 12.015 5.4375 13.375 C1.3694024 14.33219944 -0.74149254 14.81170609 -4.5 12.8125 C-6.5625 10.375 -6.5625 10.375 -7.0625 7.375 C-6.2175263 2.3051578 -5.28759806 0.55658927 0 0 Z M-0.5625 3.375 C-0.8925 4.035 -1.2225 4.695 -1.5625 5.375 C-0.5725 5.045 0.4175 4.715 1.4375 4.375 C0.7775 4.045 0.1175 3.715 -0.5625 3.375 Z " fill="#033E80" transform="translate(130.5625,48.625)"/>
<path d="M0 0 C0 1.32 0 2.64 0 4 C0.66 4 1.32 4 2 4 C2 5.32 2 6.64 2 8 C1.34 8 0.68 8 0 8 C0 9.98 0 11.96 0 14 C0.66 14 1.32 14 2 14 C2 15.32 2 16.64 2 18 C-0.375 18.125 -0.375 18.125 -3 18 C-5 16 -5 16 -5.1953125 14.0546875 C-5.13020833 12.03645833 -5.06510417 10.01822917 -5 8 C-6.98 8 -8.96 8 -11 8 C-10.360625 8.2475 -9.72125 8.495 -9.0625 8.75 C-7 10 -7 10 -6 11.875 C-6 14 -6 14 -7.5 16.3125 C-10 18 -10 18 -13.75 17.75 C-14.8225 17.5025 -15.895 17.255 -17 17 C-17 15.68 -17 14.36 -17 13 C-16.01 13 -15.02 13 -14 13 C-14.99 12.34 -15.98 11.68 -17 11 C-17.3125 8.5 -17.3125 8.5 -17 6 C-15 4 -15 4 -12.8359375 3.8046875 C-11.61777344 3.83949219 -11.61777344 3.83949219 -10.375 3.875 C-9.14910156 3.90207031 -9.14910156 3.90207031 -7.8984375 3.9296875 C-6.95871094 3.96449219 -6.95871094 3.96449219 -6 4 C-5.67 3.01 -5.34 2.02 -5 1 C-3 0 -3 0 0 0 Z " fill="#033E80" transform="translate(328,22)"/>
<path d="M0 0 C1.7074998 1.28062485 3.37373596 2.61767557 5 4 C5 4.66 5 5.32 5 6 C5.66 6 6.32 6 7 6 C7 7.32 7 8.64 7 10 C1.11599345 10.85695967 -4.55909292 11.12539234 -10.5 11.0625 C-11.32242188 11.05798828 -12.14484375 11.05347656 -12.9921875 11.04882812 C-14.99482396 11.03718489 -16.99742227 11.01925556 -19 11 C-19.79953138 7.71303767 -20.09658936 6.28976808 -19 3 C-17.6078125 3.061875 -17.6078125 3.061875 -16.1875 3.125 C-12.84190281 3.27136339 -12.84190281 3.27136339 -10 1 C-8.0625 1.3125 -8.0625 1.3125 -6 2 C-5.2575 2.185625 -4.515 2.37125 -3.75 2.5625 C-2.88375 2.7790625 -2.88375 2.7790625 -2 3 C-2 2.34 -2 1.68 -2 1 C-1.34 0.67 -0.68 0.34 0 0 Z " fill="#000000" transform="translate(64,83)"/>
<path d="M0 0 C0.90105469 0.02707031 1.80210937 0.05414062 2.73046875 0.08203125 C3.76107422 0.13423828 3.76107422 0.13423828 4.8125 0.1875 C4.0625 6.8125 4.0625 6.8125 1.8125 10.1875 C2.328125 10.579375 2.84375 10.97125 3.375 11.375 C4.8125 13.1875 4.8125 13.1875 4.625 15.8125 C3.8125 18.1875 3.8125 18.1875 1.8125 19.1875 C-0.0625 19.35546875 -0.0625 19.35546875 -2.1875 19.375 C-3.239375 19.39626953 -3.239375 19.39626953 -4.3125 19.41796875 C-6.1875 19.1875 -6.1875 19.1875 -8.1875 17.1875 C-8.12890625 15.19921875 -8.12890625 15.19921875 -7.75 12.875 C-7.33548275 9.97337923 -7.18172294 8.21407447 -7.8125 5.3125 C-7.93625 4.61125 -8.06 3.91 -8.1875 3.1875 C-5.8537846 -0.09552336 -3.87590356 -0.15100923 0 0 Z M-3.1875 4.1875 C-3.1875 4.8475 -3.1875 5.5075 -3.1875 6.1875 C-2.5275 6.1875 -1.8675 6.1875 -1.1875 6.1875 C-1.1875 5.5275 -1.1875 4.8675 -1.1875 4.1875 C-1.8475 4.1875 -2.5075 4.1875 -3.1875 4.1875 Z M-3.1875 14.1875 C-3.1875 14.8475 -3.1875 15.5075 -3.1875 16.1875 C-2.1975 15.8575 -1.2075 15.5275 -0.1875 15.1875 C-1.1775 14.8575 -2.1675 14.5275 -3.1875 14.1875 Z " fill="#033E80" transform="translate(217.1875,25.8125)"/>
<path d="M0 0 C2.31 0 4.62 0 7 0 C7.67155349 2.26949102 8.3373963 4.5403961 9 6.8125 C9.37125 8.07707031 9.7425 9.34164063 10.125 10.64453125 C11 14 11 14 11 17 C9.35 17.33 7.7 17.66 6 18 C5.67 16.35 5.34 14.7 5 13 C3.01508358 13.26676204 3.01508358 13.26676204 1 14 C0.67 14.99 0.34 15.98 0 17 C-1.65 17 -3.3 17 -5 17 C-4.31063929 13.08878502 -3.21749819 9.44491404 -1.9375 5.6875 C-1.57527344 4.61886719 -1.21304688 3.55023437 -0.83984375 2.44921875 C-0.56269531 1.64097656 -0.28554687 0.83273438 0 0 Z M2 7 C2 7.66 2 8.32 2 9 C2.66 9 3.32 9 4 9 C4 8.34 4 7.68 4 7 C3.34 7 2.68 7 2 7 Z " fill="#033E80" transform="translate(198,22)"/>
<path d="M0 0 C1.65 0 3.3 0 5 0 C5 1.98 5 3.96 5 6 C5.969375 5.979375 6.93875 5.95875 7.9375 5.9375 C11 6 11 6 12 7 C12.07244053 9.01964199 12.08377188 11.04167124 12.0625 13.0625 C12.05347656 14.16722656 12.04445312 15.27195312 12.03515625 16.41015625 C12.02355469 17.26480469 12.01195312 18.11945312 12 19 C10.35 19.33 8.7 19.66 7 20 C7 16.7 7 13.4 7 10 C6.34 10 5.68 10 5 10 C5 12.97 5 15.94 5 19 C3.35 19.33 1.7 19.66 0 20 C0 13.4 0 6.8 0 0 Z " fill="#033E80" transform="translate(118,20)"/>
<path d="M0 0 C1.65 0 3.3 0 5 0 C5 1.98 5 3.96 5 6 C5.969375 5.979375 6.93875 5.95875 7.9375 5.9375 C11 6 11 6 12 7 C12.23427778 9.01594582 12.41336124 11.038474 12.5625 13.0625 C12.64628906 14.16722656 12.73007813 15.27195312 12.81640625 16.41015625 C12.87699219 17.26480469 12.93757812 18.11945312 13 19 C11.35 19.33 9.7 19.66 8 20 C7.67 16.7 7.34 13.4 7 10 C6.34 10 5.68 10 5 10 C5 12.97 5 15.94 5 19 C3.35 19.33 1.7 19.66 0 20 C0 13.4 0 6.8 0 0 Z " fill="#033E80" transform="translate(149,43)"/>
<path d="M0 0 C3.25 0.25 3.25 0.25 6 1 C6.33 2.32 6.66 3.64 7 5 C8.32 4.67 9.64 4.34 11 4 C12.65 5.98 14.3 7.96 16 10 C14.3954444 9.85851011 12.79136233 9.71164314 11.1875 9.5625 C10.29417969 9.48128906 9.40085937 9.40007813 8.48046875 9.31640625 C6 9 6 9 3 8 C3.66 8.33 4.32 8.66 5 9 C4.67 10.98 4.34 12.96 4 15 C3.01 15.33 2.02 15.66 1 16 C-0.20628008 13.66785852 -1.1654738 11.50357861 -2 9 C-6.455 9.495 -6.455 9.495 -11 10 C-8.71259132 5.42518263 -8.39023196 5.67246932 -4 4 C-3.360625 3.278125 -2.72125 2.55625 -2.0625 1.8125 C-1.381875 1.214375 -0.70125 0.61625 0 0 Z " fill="#EB9E9D" transform="translate(41,37)"/>
<path d="M0 0 C8 0 8 0 10.5 1.1875 C12 3 12 3 12.25 5.5 C12.1675 6.325 12.085 7.15 12 8 C12 8.99 12 9.98 12 11 C12.33 11.33 12.66 11.66 13 12 C13.1875 14.9375 13.1875 14.9375 13 18 C10.41073669 20.58926331 8.97294721 20.37398043 5.375 20.625 C3.60125 20.74875 1.8275 20.8725 0 21 C0 14.07 0 7.14 0 0 Z M2 3 C2 4.98 2 6.96 2 9 C4.41645782 9.16687448 4.41645782 9.16687448 7 9 C7.66 8.34 8.32 7.68 9 7 C8.6814823 4.89179203 8.6814823 4.89179203 8 3 C6.02 3 4.04 3 2 3 Z M2 11 C2.33 13.31 2.66 15.62 3 18 C6.465 17.505 6.465 17.505 10 17 C9.67 15.35 9.34 13.7 9 12 C6.69 11.67 4.38 11.34 2 11 Z " fill="#033E80" transform="translate(235,72)"/>
<path d="M0 0 C1.45742463 -0.08096803 2.91612807 -0.13917774 4.375 -0.1875 C5.18710938 -0.22230469 5.99921875 -0.25710937 6.8359375 -0.29296875 C7.55007812 -0.19628906 8.26421875 -0.09960938 9 0 C11.20914 3.31371 11.22481553 4.3446021 11.125 8.1875 C11.10695312 9.08855469 11.08890625 9.98960938 11.0703125 10.91796875 C11.03550781 11.94857422 11.03550781 11.94857422 11 13 C7.07196405 13.82214706 3.80939588 14.48143173 0 13 C-1.4375 10.6875 -1.4375 10.6875 -2 8 C-1.125 5.9375 -1.125 5.9375 0 4 C0 2.68 0 1.36 0 0 Z M4 8 C4.33 8.66 4.66 9.32 5 10 C5.33 9.34 5.66 8.68 6 8 C5.34 8 4.68 8 4 8 Z " fill="#033E80" transform="translate(175,26)"/>
<path d="M0 0 C1.45742463 -0.08096803 2.91612807 -0.13917774 4.375 -0.1875 C5.18710938 -0.22230469 5.99921875 -0.25710937 6.8359375 -0.29296875 C7.55007812 -0.19628906 8.26421875 -0.09960938 9 0 C11.20914 3.31371 11.22481553 4.3446021 11.125 8.1875 C11.10695312 9.08855469 11.08890625 9.98960938 11.0703125 10.91796875 C11.03550781 11.94857422 11.03550781 11.94857422 11 13 C7.07196405 13.82214706 3.80939588 14.48143173 0 13 C-1.4375 10.6875 -1.4375 10.6875 -2 8 C-1.125 5.9375 -1.125 5.9375 0 4 C0 2.68 0 1.36 0 0 Z M4 8 C4.33 8.66 4.66 9.32 5 10 C5.33 9.34 5.66 8.68 6 8 C5.34 8 4.68 8 4 8 Z " fill="#033E80" transform="translate(155,26)"/>
<path d="M0 0 C1.45742463 -0.08096803 2.91612807 -0.13917774 4.375 -0.1875 C5.18710938 -0.22230469 5.99921875 -0.25710937 6.8359375 -0.29296875 C7.55007812 -0.19628906 8.26421875 -0.09960938 9 0 C11.20914 3.31371 11.22481553 4.3446021 11.125 8.1875 C11.10695312 9.08855469 11.08890625 9.98960938 11.0703125 10.91796875 C11.03550781 11.94857422 11.03550781 11.94857422 11 13 C7.07196405 13.82214706 3.80939588 14.48143173 0 13 C-1.4375 10.6875 -1.4375 10.6875 -2 8 C-1.125 5.9375 -1.125 5.9375 0 4 C0 2.68 0 1.36 0 0 Z M4 8 C4.33 8.66 4.66 9.32 5 10 C5.33 9.34 5.66 8.68 6 8 C5.34 8 4.68 8 4 8 Z " fill="#033E80" transform="translate(133,26)"/>
<path d="M0 0 C1.79093191 -0.08086147 3.58289628 -0.13912702 5.375 -0.1875 C6.87160156 -0.23970703 6.87160156 -0.23970703 8.3984375 -0.29296875 C9.25695312 -0.19628906 10.11546875 -0.09960938 11 0 C13.20914 3.31371 13.22481553 4.3446021 13.125 8.1875 C13.10695312 9.08855469 13.08890625 9.98960938 13.0703125 10.91796875 C13.03550781 11.94857422 13.03550781 11.94857422 13 13 C11.35 13.33 9.7 13.66 8 14 C7.95101562 13.36191406 7.90203125 12.72382812 7.8515625 12.06640625 C7.77679688 11.24011719 7.70203125 10.41382813 7.625 9.5625 C7.52058594 8.32693359 7.52058594 8.32693359 7.4140625 7.06640625 C7.27742187 6.38449219 7.14078125 5.70257813 7 5 C6.34 4.67 5.68 4.34 5 4 C5.33 6.97 5.66 9.94 6 13 C4.34385343 13.38218767 2.67542976 13.71395102 1 14 C0 13 0 13 -0.09765625 10.05859375 C-0.08605469 8.86363281 -0.07445312 7.66867188 -0.0625 6.4375 C-0.05347656 5.23996094 -0.04445312 4.04242188 -0.03515625 2.80859375 C-0.02355469 1.88175781 -0.01195312 0.95492187 0 0 Z " fill="#033E80" transform="translate(163,49)"/>
<path d="M0 0 C1.79093191 -0.08086147 3.58289628 -0.13912702 5.375 -0.1875 C6.87160156 -0.23970703 6.87160156 -0.23970703 8.3984375 -0.29296875 C9.25695312 -0.19628906 10.11546875 -0.09960938 11 0 C13.20914 3.31371 13.22481553 4.3446021 13.125 8.1875 C13.10695313 9.08855469 13.08890625 9.98960938 13.0703125 10.91796875 C13.03550781 11.94857422 13.03550781 11.94857422 13 13 C11.35 13.33 9.7 13.66 8 14 C7.95101563 13.36191406 7.90203125 12.72382812 7.8515625 12.06640625 C7.77679688 11.24011719 7.70203125 10.41382813 7.625 9.5625 C7.52058594 8.32693359 7.52058594 8.32693359 7.4140625 7.06640625 C7.27742188 6.38449219 7.14078125 5.70257812 7 5 C6.34 4.67 5.68 4.34 5 4 C5.33 6.97 5.66 9.94 6 13 C4.34385343 13.38218767 2.67542976 13.71395102 1 14 C0 13 0 13 -0.09765625 10.05859375 C-0.08605469 8.86363281 -0.07445312 7.66867188 -0.0625 6.4375 C-0.05347656 5.23996094 -0.04445313 4.04242188 -0.03515625 2.80859375 C-0.02355469 1.88175781 -0.01195312 0.95492188 0 0 Z " fill="#033E80" transform="translate(297,26)"/>
<path d="M0 0 C6.0546875 -0.1953125 6.0546875 -0.1953125 8 0 C10 2 10 2 10.1953125 4.6015625 C10.17210937 5.59929688 10.14890625 6.59703125 10.125 7.625 C10.10695312 8.62789062 10.08890625 9.63078125 10.0703125 10.6640625 C10.03550781 11.82035156 10.03550781 11.82035156 10 13 C5.99756684 13.83771857 2.95651739 14.13043354 -1 13 C-2 12 -2 12 -2.1875 9.3125 C-1.99285364 5.87374757 -1.22094153 3.20497153 0 0 Z M3 8 C3 8.66 3 9.32 3 10 C3.66 10 4.32 10 5 10 C5 9.34 5 8.68 5 8 C4.34 8 3.68 8 3 8 Z " fill="#033E80" transform="translate(233,26)"/>
<path d="M0 0 C1.87890625 0.44921875 1.87890625 0.44921875 3.94140625 2.57421875 C5.25761628 6.61059618 4.76650578 9.67401969 2.87890625 13.44921875 C-4.14267648 15.06072954 -4.14267648 15.06072954 -7.62109375 12.88671875 C-9.53846917 9.77098369 -9.64662124 8.05283583 -9.12109375 4.44921875 C-7.24851668 0.00184822 -4.44926185 -0.23762172 0 0 Z M-3.12109375 3.44921875 C-3.45109375 5.42921875 -3.78109375 7.40921875 -4.12109375 9.44921875 C-3.13109375 9.77921875 -2.14109375 10.10921875 -1.12109375 10.44921875 C-0.34867106 8.61221086 -0.34867106 8.61221086 -0.12109375 6.44921875 C-1.47553676 4.67730966 -1.47553676 4.67730966 -3.12109375 3.44921875 Z " fill="#033E80" transform="translate(186.12109375,48.55078125)"/>
<path d="M0 0 C1.91015625 0.23046875 1.91015625 0.23046875 3.91015625 2.23046875 C4.10546875 4.83203125 4.10546875 4.83203125 4.03515625 7.85546875 C4.01710938 8.85835937 3.9990625 9.86125 3.98046875 10.89453125 C3.94566406 12.05082031 3.94566406 12.05082031 3.91015625 13.23046875 C-0.09227691 14.06818732 -3.13332636 14.36090229 -7.08984375 13.23046875 C-8.08984375 12.23046875 -8.08984375 12.23046875 -8.27734375 9.79296875 C-8.08984375 7.23046875 -8.08984375 7.23046875 -6.08984375 5.23046875 C-6.49914361 3.17650149 -6.49914361 3.17650149 -7.08984375 1.23046875 C-5.19495423 -0.66442077 -2.51845229 0.05027763 0 0 Z M-3.08984375 8.23046875 C-3.08984375 8.89046875 -3.08984375 9.55046875 -3.08984375 10.23046875 C-2.42984375 10.23046875 -1.76984375 10.23046875 -1.08984375 10.23046875 C-1.08984375 9.57046875 -1.08984375 8.91046875 -1.08984375 8.23046875 C-1.74984375 8.23046875 -2.40984375 8.23046875 -3.08984375 8.23046875 Z " fill="#033E80" transform="translate(112.08984375,25.76953125)"/>
<path d="M0 0 C7.42857143 -0.14285714 7.42857143 -0.14285714 11 1 C11 2.65 11 4.3 11 6 C10.34 5.01 9.68 4.02 9 3 C7.04614933 2.21011855 7.04614933 2.21011855 4.875 1.8125 C3.59625 1.544375 2.3175 1.27625 1 1 C1.78375 1.78375 2.5675 2.5675 3.375 3.375 C4.91666667 4.91666667 6.45833333 6.45833333 8 8 C6.02 10.31 4.04 12.62 2 15 C7.445 14.01 7.445 14.01 13 13 C13.33 15.64 13.66 18.28 14 21 C16.35785318 20.10664203 16.35785318 20.10664203 17.125 16.9375 C17.558125 15.4834375 17.558125 15.4834375 18 14 C16.68 13.34 15.36 12.68 14 12 C14.99 11.67 15.98 11.34 17 11 C17 11.66 17 12.32 17 13 C22.445 13.495 22.445 13.495 28 14 C25.47211993 11.20127563 23.79588866 9.54226981 20 9 C20.33 8.01 20.66 7.02 21 6 C21.7425 5.87625 22.485 5.7525 23.25 5.625 C25.80141485 5.04513299 27.7267573 4.26291261 30 3 C28.625 5 28.625 5 27 7 C26.34 7 25.68 7 25 7 C25.825 7.928125 26.65 8.85625 27.5 9.8125 C30 12.625 30 12.625 30 16 C28.741875 16.020625 27.48375 16.04125 26.1875 16.0625 C25.47980469 16.07410156 24.77210937 16.08570312 24.04296875 16.09765625 C22 16 22 16 19 15 C18.67 16.98 18.34 18.96 18 21 C16.35 21.33 14.7 21.66 13 22 C11.5393715 19.35261084 11 18.10551666 11 15 C10.113125 15.350625 9.22625 15.70125 8.3125 16.0625 C4.93796874 17.01755602 3.30313848 16.97151132 0 16 C0.57352893 12.12867972 2.48704352 9.91827204 5 7 C4.360625 6.773125 3.72125 6.54625 3.0625 6.3125 C1 5 1 5 0.25 2.375 C0.1675 1.59125 0.085 0.8075 0 0 Z " fill="#F7D8D8" transform="translate(28,32)"/>
<path d="M0 0 C8.49609375 -0.09765625 8.49609375 -0.09765625 11 0 C12 1 12 1 12.09765625 3.72265625 C12.08605469 4.82480469 12.07445312 5.92695313 12.0625 7.0625 C12.05347656 8.16722656 12.04445313 9.27195312 12.03515625 10.41015625 C12.02355469 11.26480469 12.01195312 12.11945312 12 13 C10.35 13.33 8.7 13.66 7 14 C7 10.7 7 7.4 7 4 C6.34 4 5.68 4 5 4 C5 6.97 5 9.94 5 13 C3.35 13.33 1.7 13.66 0 14 C0 9.38 0 4.76 0 0 Z " fill="#033E80" transform="translate(269,26)"/>
<path d="M0 0 C0.99 0 1.98 0 3 0 C3 7.26 3 14.52 3 22 C-1.06565457 23.01641364 -3.02443166 23.09962529 -7 22 C-9.52224843 19.72997641 -9.94705668 18.36303993 -10.4375 15 C-10 12 -10 12 -8.375 9.625 C-5.3962104 7.5868808 -3.53677664 7.67847485 0 8 C0 5.36 0 2.72 0 0 Z M-5.75 11.1875 C-7.4200394 13.60905713 -7.36962413 15.11693182 -7 18 C-6.34 18.66 -5.68 19.32 -5 20 C-2.39719432 19.67958603 -2.39719432 19.67958603 0 19 C0 16.03 0 13.06 0 10 C-3.80082707 9.62566572 -3.80082707 9.62566572 -5.75 11.1875 Z " fill="#033E80" transform="translate(185,70)"/>
<path d="M0 0 C3.5 0.5625 3.5 0.5625 5.4375 2.875 C6.5 5.5625 6.5 5.5625 6.5 8.5625 C4.19 8.8925 1.88 9.2225 -0.5 9.5625 C1.48 9.5625 3.46 9.5625 5.5 9.5625 C5.5 10.8825 5.5 12.2025 5.5 13.5625 C1.4319024 14.51969944 -0.67899254 14.99920609 -4.4375 13 C-6.5 10.5625 -6.5 10.5625 -7 7.5625 C-6.15889227 2.51585365 -5.19072427 0.83422354 0 0 Z M-0.5 3.5625 C-0.83 4.2225 -1.16 4.8825 -1.5 5.5625 C-0.51 5.2325 0.48 4.9025 1.5 4.5625 C0.84 4.2325 0.18 3.9025 -0.5 3.5625 Z " fill="#033E80" transform="translate(374.5,25.4375)"/>
<path d="M0 0 C0.99 0 1.98 0 3 0 C3 2.64 3 5.28 3 8 C3.928125 7.79375 4.85625 7.5875 5.8125 7.375 C9 7 9 7 12 9 C12.29296875 12.2578125 12.29296875 12.2578125 12.1875 16.125 C12.16042969 17.40632813 12.13335937 18.68765625 12.10546875 20.0078125 C12.07066406 20.99523437 12.03585937 21.98265625 12 23 C11.01 22.67 10.02 22.34 9 22 C8.67 18.37 8.34 14.74 8 11 C6.35 11 4.7 11 3 11 C3 14.96 3 18.92 3 23 C2.01 22.67 1.02 22.34 0 22 C0 14.74 0 7.48 0 0 Z " fill="#033E80" transform="translate(297,70)"/>
<path d="M0 0 C3.96 0 7.92 0 12 0 C12 0.99 12 1.98 12 3 C9.03 3 6.06 3 3 3 C3 4.98 3 6.96 3 9 C5.64 9 8.28 9 11 9 C11 9.66 11 10.32 11 11 C8.36 11 5.72 11 3 11 C3 13.31 3 15.62 3 18 C5.97 18 8.94 18 12 18 C12 18.66 12 19.32 12 20 C8.04 20.33 4.08 20.66 0 21 C0 14.07 0 7.14 0 0 Z " fill="#033E80" transform="translate(118,72)"/>
<path d="M0 0 C3.96 0 7.92 0 12 0 C12 0.99 12 1.98 12 3 C9.03 3 6.06 3 3 3 C3 4.98 3 6.96 3 9 C5.64 9 8.28 9 11 9 C11 9.66 11 10.32 11 11 C8.36 11 5.72 11 3 11 C3 13.31 3 15.62 3 18 C5.97 18 8.94 18 12 18 C12 18.66 12 19.32 12 20 C8.04 20.33 4.08 20.66 0 21 C0 14.07 0 7.14 0 0 Z " fill="#033E80" transform="translate(104,72)"/>
<path d="M0 0 C3.96 0 7.92 0 12 0 C12 0.99 12 1.98 12 3 C9.03 3 6.06 3 3 3 C3 4.98 3 6.96 3 9 C5.64 9 8.28 9 11 9 C11 9.66 11 10.32 11 11 C8.36 11 5.72 11 3 11 C3 13.31 3 15.62 3 18 C5.97 18 8.94 18 12 18 C12 18.66 12 19.32 12 20 C8.04 20.33 4.08 20.66 0 21 C0 14.07 0 7.14 0 0 Z " fill="#033E80" transform="translate(90,72)"/>
<path d="M0 0 C4.29 0 8.58 0 13 0 C13 1.32 13 2.64 13 4 C11.68 4 10.36 4 9 4 C9.33 8.29 9.66 12.58 10 17 C8.02 17.33 6.04 17.66 4 18 C4 13.38 4 8.76 4 4 C2.68 4 1.36 4 0 4 C0 2.68 0 1.36 0 0 Z " fill="#033E80" transform="translate(111,45)"/>
<path d="M0 0 C0.66 0.33 1.32 0.66 2 1 C2 1.99 2 2.98 2 4 C-0.64 4 -3.28 4 -6 4 C-5.26028064 7.38083607 -5.26028064 7.38083607 -1.5 8.8125 C1.45346599 10.40189098 1.88427161 10.70763354 3.1875 14 C3 17 3 17 1.4375 19.375 C-1.6160137 21.4106758 -3.39558667 21.39178406 -7 21 C-7.66 20.67 -8.32 20.34 -9 20 C-9 19.01 -9 18.02 -9 17 C-6.36 17.33 -3.72 17.66 -1 18 C-0.95489639 15.62102997 -0.95489639 15.62102997 -2 13 C-3.60311596 11.89910656 -3.60311596 11.89910656 -5.5 11 C-8.86805556 9.27777778 -8.86805556 9.27777778 -10.1875 6.5 C-10 4 -10 4 -8.4375 1.6875 C-5.38363378 -0.42671508 -3.64427515 -0.39611686 0 0 Z " fill="#033E80" transform="translate(149,72)"/>
<path d="M0 0 C1 1 1 1 1.09765625 4.16015625 C1.08605469 5.44792969 1.07445312 6.73570313 1.0625 8.0625 C1.05347656 9.35285156 1.04445313 10.64320312 1.03515625 11.97265625 C1.02355469 12.97167969 1.01195312 13.97070312 1 15 C-0.258125 15.04125 -1.51625 15.0825 -2.8125 15.125 C-3.52019531 15.14820312 -4.22789062 15.17140625 -4.95703125 15.1953125 C-7 15 -7 15 -10 13 C-10.1875 9.875 -10.1875 9.875 -10 7 C-4.25 4 -4.25 4 -2 4 C-2 3.34 -2 2.68 -2 2 C-4.31 2.33 -6.62 2.66 -9 3 C-8.67 2.01 -8.34 1.02 -8 0 C-4.69676014 -1.10107995 -3.29495231 -0.86709271 0 0 Z M-7 8 C-7 9.32 -7 10.64 -7 12 C-5.35 12 -3.7 12 -2 12 C-2 10.35 -2 8.7 -2 7 C-4.9254644 6.7763932 -4.9254644 6.7763932 -7 8 Z " fill="#033E80" transform="translate(267,78)"/>
<path d="M0 0 C2.5625 0.875 2.5625 0.875 4.375 3.3125 C5.5625 5.875 5.5625 5.875 5.5625 7.875 C2.2625 8.205 -1.0375 8.535 -4.4375 8.875 C-3.4475 10.36 -3.4475 10.36 -2.4375 11.875 C1.14607241 12.12515873 1.14607241 12.12515873 4.5625 11.875 C4.5625 12.865 4.5625 13.855 4.5625 14.875 C-2.66330645 16.32016129 -2.66330645 16.32016129 -5.9375 14.4375 C-8.16519302 10.63185776 -7.92486555 8.26128999 -7.4375 3.875 C-5.42435407 1.03829437 -3.52504858 -0.18077172 0 0 Z M-3.4375 2.875 C-3.7675 3.865 -4.0975 4.855 -4.4375 5.875 C-2.1275 5.875 0.1825 5.875 2.5625 5.875 C1.9025 4.885 1.2425 3.895 0.5625 2.875 C-0.7575 2.875 -2.0775 2.875 -3.4375 2.875 Z " fill="#033E80" transform="translate(197.4375,77.125)"/>
<path d="M0 0 C0.99 0 1.98 0 3 0 C3.33 3.63 3.66 7.26 4 11 C5.32 11 6.64 11 8 11 C8.33 7.37 8.66 3.74 9 0 C9.99 0 10.98 0 12 0 C12 4.95 12 9.9 12 15 C10.576875 15.061875 9.15375 15.12375 7.6875 15.1875 C6.48673828 15.23970703 6.48673828 15.23970703 5.26171875 15.29296875 C3 15 3 15 1.21875 13.875 C-0.54851611 11.15612907 -0.29091256 9.01828928 -0.1875 5.8125 C-0.16042969 4.72582031 -0.13335937 3.63914062 -0.10546875 2.51953125 C-0.07066406 1.68808594 -0.03585938 0.85664062 0 0 Z " fill="#033E80" transform="translate(161,78)"/>
<path d="M0 0 C1.32229189 2.64458379 1.09677194 4.67761301 1.0625 7.625 C1.05347656 8.62789062 1.04445313 9.63078125 1.03515625 10.6640625 C1.02355469 11.43492188 1.01195312 12.20578125 1 13 C0.01 13.33 -0.98 13.66 -2 14 C-2.33 10.04 -2.66 6.08 -3 2 C-4.32 2 -5.64 2 -7 2 C-7.33 5.63 -7.66 9.26 -8 13 C-8.99 13.33 -9.98 13.66 -11 14 C-11 9.05 -11 4.1 -11 -1 C-3.99328859 -2.16778523 -3.99328859 -2.16778523 0 0 Z " fill="#033E80" transform="translate(282,79)"/>
<path d="M0 0 C1.98 0 3.96 0 6 0 C6 6.27 6 12.54 6 19 C4.35 19.33 2.7 19.66 1 20 C0.67 13.4 0.34 6.8 0 0 Z " fill="#033E80" transform="translate(191,43)"/>
<path d="M0 0 C1.65 0 3.3 0 5 0 C5.0809313 2.60478883 5.14045434 5.20706653 5.1875 7.8125 C5.22520508 8.91948242 5.22520508 8.91948242 5.26367188 10.04882812 C5.3371596 15.46242355 5.3371596 15.46242355 3.73828125 18.01171875 C2 19 2 19 -2 19 C-1.84660156 18.49984375 -1.69320312 17.9996875 -1.53515625 17.484375 C-0.80542604 14.09672234 -0.63643523 10.70038481 -0.4375 7.25 C-0.39431641 6.55261719 -0.35113281 5.85523438 -0.30664062 5.13671875 C-0.20110404 3.42468078 -0.1001009 1.71236439 0 0 Z " fill="#033E80" transform="translate(167,26)"/>
<path d="M0 0 C2.97 0 5.94 0 9 0 C8.625 2.4375 8.625 2.4375 8 5 C7.01 5.495 7.01 5.495 6 6 C6 8.31 6 10.62 6 13 C4.34385343 13.38218767 2.67542976 13.71395102 1 14 C0 13 0 13 -0.09765625 10.05859375 C-0.08605469 8.86363281 -0.07445312 7.66867188 -0.0625 6.4375 C-0.05347656 5.23996094 -0.04445312 4.04242188 -0.03515625 2.80859375 C-0.02355469 1.88175781 -0.01195312 0.95492188 0 0 Z " fill="#033E80" transform="translate(145,26)"/>
<path d="M0 0 C1.65 0 3.3 0 5 0 C5 5.61 5 11.22 5 17 C3.35 17.33 1.7 17.66 0 18 C0 12.06 0 6.12 0 0 Z " fill="#033E80" transform="translate(290,22)"/>
<path d="M0 0 C1.87824891 1.87824891 1.39102397 5.03935276 1.5625 7.5625 C1.64628906 8.76003906 1.73007813 9.95757812 1.81640625 11.19140625 C1.87699219 12.11824219 1.93757812 13.04507813 2 14 C1.01 14.33 0.02 14.66 -1 15 C-1.33 10.71 -1.66 6.42 -2 2 C-3.98 2.33 -5.96 2.66 -8 3 C-7.67 6.63 -7.34 10.26 -7 14 C-7.99 14.33 -8.98 14.66 -10 15 C-10.33 10.05 -10.66 5.1 -11 0 C-4.05263158 -1.15789474 -4.05263158 -1.15789474 0 0 Z " fill="#033E80" transform="translate(215,78)"/>
<path d="M0 0 C2.64 0 5.28 0 8 0 C7.67 1.65 7.34 3.3 7 5 C6.34 5 5.68 5 5 5 C5 7.64 5 10.28 5 13 C3.35 13.33 1.7 13.66 0 14 C0 9.38 0 4.76 0 0 Z " fill="#033E80" transform="translate(223,26)"/>
<path d="M0 0 C0 0.99 0 1.98 0 3 C-1.98 3 -3.96 3 -6 3 C-7.87543354 6.86763446 -7.87543354 6.86763446 -7 11 C-4.69 11 -2.38 11 0 11 C0 11.99 0 12.98 0 14 C-6.25 15.44230769 -6.25 15.44230769 -9.4375 13.5625 C-11.75417769 9.76314859 -11.49132585 7.42193268 -11 3 C-7.86994248 -1.4105356 -4.98760763 -0.97583628 0 0 Z " fill="#033E80" transform="translate(296,78)"/>
<path d="M0 0 C0.99 0 1.98 0 3 0 C3 1.32 3 2.64 3 4 C3.99 4 4.98 4 6 4 C6 4.66 6 5.32 6 6 C5.01 6 4.02 6 3 6 C3 9.3 3 12.6 3 16 C3.99 16 4.98 16 6 16 C6 16.99 6 17.98 6 19 C3.5625 18.625 3.5625 18.625 1 18 C-0.26237731 15.47524538 -0.09856404 13.68799534 -0.0625 10.875 C-0.05347656 9.96492188 -0.04445312 9.05484375 -0.03515625 8.1171875 C-0.02355469 7.41851562 -0.01195312 6.71984375 0 6 C-0.66 6 -1.32 6 -2 6 C-2 5.34 -2 4.68 -2 4 C-1.34 4 -0.68 4 0 4 C0 2.68 0 1.36 0 0 Z " fill="#033E80" transform="translate(154,74)"/>
<path d="M0 0 C1.65 0 3.3 0 5 0 C5 4.29 5 8.58 5 13 C3.35 13.33 1.7 13.66 0 14 C0 9.38 0 4.76 0 0 Z " fill="#033E80" transform="translate(331,26)"/>
<path d="M0 0 C0.99 0 1.98 0 3 0 C3 6.6 3 13.2 3 20 C2.01 20.33 1.02 20.66 0 21 C0 14.07 0 7.14 0 0 Z " fill="#033E80" transform="translate(84,72)"/>
<path d="M0 0 C7.42857143 -0.14285714 7.42857143 -0.14285714 11 1 C11 2.65 11 4.3 11 6 C10.34 5.01 9.68 4.02 9 3 C7.04614933 2.21011855 7.04614933 2.21011855 4.875 1.8125 C3.59625 1.544375 2.3175 1.27625 1 1 C1.78375 1.78375 2.5675 2.5675 3.375 3.375 C4.91666667 4.91666667 6.45833333 6.45833333 8 8 C6.02 10.31 4.04 12.62 2 15 C3.98 14.67 5.96 14.34 8 14 C8.33 14.66 8.66 15.32 9 16 C5.04 16.495 5.04 16.495 1 17 C0.1875 15.375 0.1875 15.375 0 13 C1.46818136 10.75390165 3.15852858 8.97621323 5 7 C4.360625 6.773125 3.72125 6.54625 3.0625 6.3125 C1 5 1 5 0.25 2.375 C0.1675 1.59125 0.085 0.8075 0 0 Z " fill="#F4CDCD" transform="translate(28,32)"/>
<path d="M0 0 C0.66 0 1.32 0 2 0 C2 1.32 2 2.64 2 4 C2.99 4 3.98 4 5 4 C5 4.66 5 5.32 5 6 C4.01 6 3.02 6 2 6 C2.11362262 7.4800841 2.24122908 8.95910074 2.375 10.4375 C2.44460937 11.26121094 2.51421875 12.08492187 2.5859375 12.93359375 C2.72257813 13.61550781 2.85921875 14.29742187 3 15 C3.66 15.33 4.32 15.66 5 16 C5 16.99 5 17.98 5 19 C3.35 18.67 1.7 18.34 0 18 C0 14.04 0 10.08 0 6 C-0.99 6 -1.98 6 -3 6 C-3 5.34 -3 4.68 -3 4 C-2.01 4 -1.02 4 0 4 C0 2.68 0 1.36 0 0 Z " fill="#033E80" transform="translate(220,74)"/>
<path d="M0 0 C0 0.66 0 1.32 0 2 C-0.99 2.33 -1.98 2.66 -3 3 C-3.33 6.63 -3.66 10.26 -4 14 C-4.99 14.33 -5.98 14.66 -7 15 C-7 10.05 -7 5.1 -7 0 C-2 -1 -2 -1 0 0 Z " fill="#033E80" transform="translate(257,78)"/>
<path d="M0 0 C-1.06588569 2.90696099 -1.70348499 3.84432962 -4.5 5.3125 C-7 6 -7 6 -9 5 C-9 3.68 -9 2.36 -9 1 C-5.92677456 0.08941469 -3.19902639 -0.08886184 0 0 Z " fill="#D83F3F" transform="translate(57,33)"/>
<path d="M0 0 C2.64 0.33 5.28 0.66 8 1 C8.33 2.32 8.66 3.64 9 5 C7.3125 5.75 7.3125 5.75 5 6 C2.25 4.1875 2.25 4.1875 0 2 C0 1.34 0 0.68 0 0 Z " fill="#D84141" transform="translate(29,33)"/>
<path d="M0 0 C3.42353587 1.21480305 5.01180815 3.01771223 7 6 C4.03 5.67 1.06 5.34 -2 5 C-2 3.68 -2 2.36 -2 1 C-1.34 0.67 -0.68 0.34 0 0 Z " fill="#D73A3A" transform="translate(50,41)"/>
<path d="M0 0 C-0.33 1.98 -0.66 3.96 -1 6 C-1.99 6.33 -2.98 6.66 -4 7 C-5.4606285 4.35261084 -6 3.10551666 -6 0 C-3.50907189 -1.24546405 -2.58919267 -0.7767578 0 0 Z " fill="#D94242" transform="translate(46,46)"/>
<path d="M0 0 C0.99 0.33 1.98 0.66 3 1 C3 2.32 3 3.64 3 5 C0.36 5.33 -2.28 5.66 -5 6 C-3.63016497 2.83884224 -3.0109362 2.0072908 0 0 Z " fill="#D73939" transform="translate(35,41)"/>
<path d="M0 0 C0.99 0.33 1.98 0.66 3 1 C3.33 2.65 3.66 4.3 4 6 C0.25 7.125 0.25 7.125 -2 6 C-1.34 4.02 -0.68 2.04 0 0 Z " fill="#D73B3B" transform="translate(42,28)"/>
<path d="M0 0 C1.32 0 2.64 0 4 0 C4 1.65 4 3.3 4 5 C2.35 5 0.7 5 -1 5 C-0.67 3.35 -0.34 1.7 0 0 Z " fill="#033E80" transform="translate(332,20)"/>
<path d="M0 0 C1.32 0 2.64 0 4 0 C4 1.65 4 3.3 4 5 C2.35 5 0.7 5 -1 5 C-0.67 3.35 -0.34 1.7 0 0 Z " fill="#033E80" transform="translate(168,20)"/>
<path d="M0 0 C3 1 3 1 3 1 Z " fill="#003A62" transform="translate(52,18)"/>
<path d="" fill="#000000" transform="translate(0,0)"/>
<path d="" fill="#000000" transform="translate(0,0)"/>
<path d="" fill="#FF3B3B" transform="translate(0,0)"/>
<path d="" fill="#004A4A" transform="translate(0,0)"/>
<path d="" fill="#00415F" transform="translate(0,0)"/>
</svg>
